<svg width="22" height="19" viewBox="0 0 22 19" fill="none" xmlns="http://www.w3.org/2000/svg">
<path d="M11.2266 9.59766C11.2266 7.73047 10.9141 6.34375 10.2891 5.4375C9.67188 4.53125 8.80859 4.07812 7.69922 4.07812C6.59766 4.07812 5.74219 4.52734 5.13281 5.42578C4.52344 6.32422 4.21875 7.71484 4.21875 9.59766C4.21875 11.4648 4.52344 12.8516 5.13281 13.7578C5.74219 14.6641 6.59766 15.1172 7.69922 15.1172C8.25391 15.1172 8.75 15.0078 9.1875 14.7891C9.625 14.5625 9.99219 14.2227 10.2891 13.7695C10.5938 13.3164 10.8242 12.7461 10.9805 12.0586C11.1445 11.3633 11.2266 10.543 11.2266 9.59766ZM14.4258 9.59766C14.4258 11.1914 14.25 12.5391 13.8984 13.6406C13.5469 14.7422 13.0664 15.6328 12.457 16.3125C11.8477 16.9922 11.1328 17.4844 10.3125 17.7891C9.5 18.0859 8.62891 18.2344 7.69922 18.2344C6.76953 18.2344 5.89453 18.082 5.07422 17.7773C4.26172 17.4648 3.55078 16.9688 2.94141 16.2891C2.33984 15.6016 1.86328 14.7109 1.51172 13.6172C1.16016 12.5156 0.984375 11.1758 0.984375 9.59766C0.984375 8.00391 1.16016 6.66016 1.51172 5.56641C1.86328 4.46484 2.33984 3.57422 2.94141 2.89453C3.55078 2.21484 4.26172 1.72266 5.07422 1.41797C5.89453 1.11328 6.76953 0.960938 7.69922 0.960938C8.62891 0.960938 9.5 1.11719 10.3125 1.42969C11.1328 1.73438 11.8477 2.23047 12.457 2.91797C13.0664 3.60547 13.5469 4.49609 13.8984 5.58984C14.25 6.68359 14.4258 8.01953 14.4258 9.59766ZM21.375 18H18.0117V4.55859H16.3359V1.19531H21.375V18Z" fill="#C99E71"/>
</svg>
